<?xml version="1.0" encoding="utf-8"?>
<!-- Generator: Adobe Illustrator 24.1.1, SVG Export Plug-In . SVG Version: 6.00 Build 0)  -->
<svg version="1.1" id="Layer_1" xmlns="http://www.w3.org/2000/svg" xmlns:xlink="http://www.w3.org/1999/xlink" x="0px" y="0px"
	 viewBox="0 0 512 512" style="enable-background:new 0 0 512 512;" xml:space="preserve">
<style type="text/css">
	.st0{fill-rule:evenodd;clip-rule:evenodd;}
</style>
<g>
	<path class="st0" d="M480,448c0,0,32,0,32-32s-32-128-160-128s-160,96-160,128s32,32,32,32H480z M224.2,417.8L224.2,417.8
		L224.2,417.8z M224.7,416h254.6l0.5-0.1l0.3-0.1c-0.1-8.5-5.4-33-24.3-55C438,340.1,407,320,352,320c-54.9,0-86,20.2-103.7,40.8
		c-19,22.1-24.3,46.6-24.3,55L224.7,416z M479.8,417.8L479.8,417.8L479.8,417.8z M352,224c35.4,0,64-28.6,64-64s-28.6-64-64-64
		s-64,28.6-64,64S316.6,224,352,224z M448,160c0,53-43,96-96,96s-96-43-96-96s43-96,96-96S448,107,448,160z M222,297
		c-12.8-4-26-6.7-39.4-7.9c-7.5-0.7-15-1.1-22.6-1.1C32,288,0,384,0,416c0,21.4,10.6,32,32,32h134.9c-4.8-10-7.1-20.9-6.9-32
		c0-32.3,12.1-65.4,34.9-92.9C202.6,313.7,211.7,304.9,222,297z M157.4,320c-53.4,0.6-83.7,20.5-101.1,40.8
		C37.2,383,32,407.6,32,416h96C128,382.6,138.3,349.3,157.4,320z M48,176c0-53,43-96,96-96s96,43,96,96s-43,96-96,96S48,229,48,176z
		 M144,112c-35.4,0-64,28.6-64,64s28.6,64,64,64s64-28.6,64-64S179.4,112,144,112z"/>
</g>
</svg>
